<?xml version="1.0" encoding="UTF-8"?>
<svg id="Layer_1" data-name="Layer 1" xmlns="http://www.w3.org/2000/svg" xmlns:xlink="http://www.w3.org/1999/xlink" viewBox="0 0 851.48 576.69">
  <defs>
    <style>
      .cls-1, .cls-2, .cls-3, .cls-4, .cls-5, .cls-6 {
        fill: none;
      }

      .cls-7 {
        fill: #126aa9;
      }

      .cls-8 {
        fill: #f58331;
      }

      .cls-9 {
        clip-path: url(#clippath-1);
      }

      .cls-10 {
        clip-path: url(#clippath-2);
      }

      .cls-11 {
        fill: #fff;
      }

      .cls-2, .cls-3 {
        stroke: #126aa9;
      }

      .cls-2, .cls-3, .cls-5, .cls-6 {
        stroke-miterlimit: 10;
      }

      .cls-2, .cls-6 {
        stroke-width: 7.65px;
      }

      .cls-3, .cls-4, .cls-5 {
        stroke-width: 9.92px;
      }

      .cls-12 {
        fill: #7b8584;
      }

      .cls-4 {
        stroke: #25557a;
        stroke-linecap: round;
        stroke-linejoin: round;
      }

      .cls-13 {
        clip-path: url(#clippath);
      }

      .cls-5, .cls-6 {
        stroke: #7b8584;
      }
    </style>
    <clipPath id="clippath">
      <path class="cls-1" d="M131.15,0h132.78l-.13,55.17-132.65,2.74V0ZM130.8,427.3h132.78v-53.04h-132.78v53.04ZM215.41,72.17h-35.74v33.74h35.74v-33.74ZM179.67,167.74h35.74v-33.74h-35.74v33.74ZM179.41,227.74h35.74v-33.74h-35.74v33.74ZM215.41,254.26h-35.74v33.74h35.74v-33.74ZM179.67,345.65h35.74v-33.74h-35.74v33.74ZM387.32,0v199.3h50.09V0h-50.09Z"/>
    </clipPath>
    <clipPath id="clippath-1">
      <path class="cls-1" d="M322.63,178.3l12.33,15.59-10.76,9.41-42.61-12-12.87-43.3s17.91-25.22,18.61-25.91,29.57-10.78,29.57-10.78l46.78,12s.7,25.57.7,29.91-6.96,21.74-6.96,21.74l-12.96-13.91-21.83,17.26Z"/>
    </clipPath>
    <clipPath id="clippath-2">
      <path class="cls-1" d="M322.63,266.04l12.33-15.59-10.76-9.41-42.61,12-12.87,43.3s17.91,25.22,18.61,25.91,29.57,10.78,29.57,10.78l46.78-12s.7-25.57.7-29.91-6.96-21.74-6.96-21.74l-12.96,13.91-21.83-17.26Z"/>
    </clipPath>
  </defs>
  <path class="cls-4" d="M425.66,102.43v-44.7c0-17.41,14.24-31.65,31.65-31.65h172.52c17.41,0,31.65,14.24,31.65,31.65v329.04c0,17.41-14.24,31.65-31.65,31.65h-172.52c-8.09,0-16.63,8.25-24.26,12.78-3.79,2.25-7.39,2.52-7.39,2.52v-184.87"/>
  <line class="cls-3" x1="551.28" y1="283.04" x2="551.28" y2="260.74"/>
  <line class="cls-6" x1="373.28" y1="303.65" x2="420.76" y2="303.65"/>
  <line class="cls-6" x1="385.5" y1="153.39" x2="422.02" y2="153.39"/>
  <polyline class="cls-6" points="301.85 21.3 301.85 66.17 283.76 84.43 283.76 98.87"/>
  <line class="cls-6" x1="321.45" y1="21.52" x2="321.45" y2="87.13"/>
  <polyline class="cls-6" points="277.76 21.52 277.76 44.61 270.85 51.52"/>
  <circle class="cls-6" cx="264.39" cy="58.24" r="8.02"/>
  <circle class="cls-6" cx="345.78" cy="63.46" r="8.02"/>
  <circle class="cls-6" cx="373.69" cy="81.46" r="8.02"/>
  <circle class="cls-6" cx="399.26" cy="121.11" r="8.02"/>
  <circle class="cls-6" cx="251.61" cy="90.07" r="8.02"/>
  <circle class="cls-6" cx="229.17" cy="120.72" r="11.02"/>
  <circle class="cls-6" cx="229.17" cy="180.2" r="11.02"/>
  <circle class="cls-6" cx="229.17" cy="240.46" r="11.02"/>
  <circle class="cls-6" cx="229.43" cy="299.41" r="11.02"/>
  <circle class="cls-6" cx="250.82" cy="332.15" r="8.93"/>
  <circle class="cls-6" cx="250.82" cy="392.07" r="8.93"/>
  <circle class="cls-6" cx="301" cy="380.24" r="8.93"/>
  <circle class="cls-6" cx="371.3" cy="379.91" r="8.93"/>
  <circle class="cls-6" cx="397.72" cy="344.43" r="8.93"/>
  <line class="cls-6" x1="345.85" y1="21.39" x2="345.85" y2="52.3"/>
  <line class="cls-6" x1="373.37" y1="21.52" x2="373.37" y2="71.22"/>
  <polyline class="cls-6" points="374.15 43.43 399.85 67.04 399.85 111.52"/>
  <line class="cls-6" x1="202.37" y1="89.48" x2="241.76" y2="89.48"/>
  <line class="cls-6" x1="184.8" y1="120.7" x2="216.72" y2="120.7"/>
  <line class="cls-6" x1="184.8" y1="179.39" x2="216.72" y2="179.39"/>
  <line class="cls-6" x1="184.8" y1="239.65" x2="216.72" y2="239.65"/>
  <circle class="cls-2" cx="229.17" cy="360.63" r="11.02"/>
  <line class="cls-2" x1="184.8" y1="359.83" x2="216.72" y2="359.83"/>
  <circle class="cls-2" cx="229.17" cy="57.89" r="11.02"/>
  <line class="cls-2" x1="184.8" y1="57.09" x2="216.72" y2="57.09"/>
  <line class="cls-6" x1="184.8" y1="299.65" x2="216.72" y2="299.65"/>
  <line class="cls-6" x1="202.89" y1="332.26" x2="240.02" y2="332.26"/>
  <line class="cls-6" x1="202.89" y1="391.91" x2="240.02" y2="391.91"/>
  <line class="cls-6" x1="301.11" y1="423.7" x2="301.11" y2="386.57"/>
  <line class="cls-6" x1="321.98" y1="423.7" x2="321.98" y2="356.17"/>
  <polyline class="cls-6" points="342.85 423.7 342.85 375.3 359.15 357.57 359.15 340.35"/>
  <line class="cls-6" x1="372.24" y1="423.7" x2="372.24" y2="386.57"/>
  <line class="cls-6" x1="398.15" y1="423.7" x2="398.15" y2="354.61"/>
  <g class="cls-13">
    <rect class="cls-3" x="197.93" y="25.57" width="227.74" height="392.87" rx="28.88" ry="28.88"/>
  </g>
  <path class="cls-3" d="M369.06,261.91s4.43,11.22,6.13,11.74,10.37,4.89,10.37,4.89l.72,17.48s-12.59,3.78-12.91,4.43-4.96,12-4.96,12l7.17,11.15-16.04,15.13-10.57-7.17-13.89,6.07-4.63,11.74-18.72.33-3.13-11.67-13.76-6.46-11.41,6.33-12.91-14.35,5.61-11.15-5.93-12.46-12.52-3.78-.72-19.43,13.37-3.39,5.28-13.43-5.8-11.67,13.57-13.7,11.67,6.2s11.54-5.15,13.04-6.13,2.93-10.89,3.07-14.35c.13-3.46-3-11.8-5.09-12.85-2.09-1.04-11.52-5.91-11.52-5.91l-11.57,6.61-13.04-14,6-11.22-6.96-13.13-11.48-3.04.17-19.48,12.43-4.78,5.39-12.78-6.52-11.57,14.52-13.57s9.78,7.74,12,6.61c4.07-2.08,13.3-6.52,13.3-6.52l2.39-11.83,20.87-.13s2.61,10.13,3.13,11.91c.52,1.78,12.74,7.26,12.74,7.26l12.26-7.04,13.7,13.48-5.87,11.09s3.26,8.39,4.83,11.91c1.57,3.52,13.17,5.87,13.17,5.87l.52,19.83s-10.04,2.22-12,2.48-5.74,10.43-5.74,10.43"/>
  <line class="cls-3" x1="311.54" y1="222" x2="330.45" y2="222"/>
  <path class="cls-3" d="M343.8,203.26s-7.35,3.78-8.91,4.83-3.57,8.87-3.48,12.17,3.04,12.87,4.61,14.09c1.57,1.22,10.35,5.39,10.35,5.39"/>
  <path class="cls-7" d="M341.54,198.82l12.2,12s-9.75-4.24-11.02-4.27c-1.27-.03-1.17-7.73-1.17-7.73Z"/>
  <path class="cls-7" d="M344.24,244.04l9.5-10.75s-9.75,4.24-11.02,4.27c-1.27.03,1.52,6.48,1.52,6.48Z"/>
  <polygon class="cls-7" points="367.89 267.7 373.63 260.54 379.37 248.87 363.89 262.39 365.89 267.21 367.89 267.7"/>
  <polygon class="cls-7" points="367.19 175.17 373.32 181.35 378.67 194 363.2 180.48 365.19 175.66 367.19 175.17"/>
  <circle class="cls-7" cx="321.58" cy="286.87" r="13.91"/>
  <circle class="cls-7" cx="321.58" cy="156.39" r="13.91"/>
  <g class="cls-9">
    <circle class="cls-5" cx="321.06" cy="157.3" r="31.04"/>
  </g>
  <g class="cls-10">
    <circle class="cls-5" cx="321.06" cy="287.04" r="31.04"/>
  </g>
  <rect class="cls-3" x="477.58" y="97.74" width="148.17" height="67.65" rx="13.57" ry="13.57"/>
  <rect class="cls-3" x="477.58" y="189.22" width="148.17" height="67.65" rx="13.57" ry="13.57"/>
  <rect class="cls-4" x="477.58" y="282.78" width="148.17" height="67.65" rx="13.57" ry="13.57"/>
  <polygon class="cls-11" points="465.06 196.7 494.45 222.26 464.19 248.7 465.06 196.7"/>
  <line class="cls-3" x1="551.28" y1="187.04" x2="551.28" y2="164.74"/>
  <polygon class="cls-8" points="500.85 115.14 500.85 148 529.3 131.57 500.85 115.14"/>
  <polygon class="cls-8" points="500.85 206.61 500.85 239.48 529.3 223.04 500.85 206.61"/>
  <polygon class="cls-8" points="500.85 298.79 500.85 331.65 529.3 315.22 500.85 298.79"/>
  <polygon class="cls-8" points="574.5 112.04 580.24 147.26 587.93 138.13 597.06 152.35 602.02 148.43 593.54 133.57 604.5 132.26 574.5 112.04"/>
  <polygon class="cls-8" points="574.5 296.74 580.24 331.96 587.93 322.83 597.06 337.04 602.02 333.13 593.54 318.26 604.5 316.96 574.5 296.74"/>
  <path class="cls-3" d="M324.54,282.96l42.3-42.3c3-3,9.78-7.3,17.74-7.17s59.35-.04,59.35-.04v14.78l31.7-25.43-30.13-24.78v13.3h-58.35c-11.48,0-13.59-1.5-18.93-6.46s-43.5-44.41-43.5-44.41"/>
  <g>
    <path class="cls-7" d="M105.25,486.25h18.4c0,1.5.01,2.3-.03,3.44-.04,1.02.04,4.06.02,5.59.8-1.31,2.09-2.68,2.23-2.81,10.22-9.76,27.14-8.81,37.44-2.13,5.88,3.81,9.48,9.15,11.67,15.52,4.12,11.96,3.21,23.49-3.58,34.37-3.35,5.37-8.43,8.78-14.02,10.96-9.49,3.71-19.08,3.45-28.14-1.82-1.57-.91-3.44-2.54-5.07-4.59,0,10.36.16,22.04.16,31.89-3.11.04-14.67.07-18.98-.1,0-3.78-.13-86.25-.11-90.31ZM124.13,518.82c-.09,8.08,3.78,14.28,10.79,17.01,7.38,2.87,17.33,1.02,21.41-8.7,1.72-4.09,2.12-8.32,1.04-12.59-1.41-5.59-4.63-9.91-10.08-12.02-11.32-4.38-23.39,3.33-23.16,16.31Z"/>
    <path class="cls-7" d="M182.61,545.16c2.39-4.63,4.3-8.35,6.8-13.09,4.97,3.72,10.3,4.82,15.89,5.86,4.27.8,8.55.63,12.82.24,1.23-.11,2.49-.63,3.6-1.22,1.73-.94,2.78-2.44,2.61-4.54-.16-1.99-1.44-3.14-3.16-3.76-3.4-1.24-6.99-1.63-10.54-2.14-5.4-.78-10.74-1.77-15.8-3.94-12.12-5.22-14.76-20.44-5.05-29.47,3.56-3.31,7.79-5.46,12.5-6.53,7.2-1.64,14.48-1.54,21.79-.77,4.08.43,7.94,1.6,11.78,2.9,1.61.55,2.9,1.14,4.69,2.36-2.18,4.11-4.63,9.49-6.44,13.3-1.46-.36-2.38-.94-3.42-1.37-6.81-2.78-13.86-3.66-21.14-2.69-1.99.26-3.83.85-5.13,2.58-2.05,2.72-1.4,5.35,1.73,6.74,1.93.85,4,1.18,6.05,1.56,4.22.79,8.45,1.47,12.67,2.26,2.86.53,5.57,1.54,8.24,2.69,7.72,3.34,11.76,11.37,9.94,19.65-1.4,6.36-5.2,10.73-10.87,13.65-4.5,2.31-9.32,3.59-14.33,3.9-9.69.61-18.41.4-27.53-3.26-2.44-.98-5.53-2.86-7.7-4.91Z"/>
  </g>
  <path class="cls-7" d="M47.04,464.94c-25.98,0-47.04,19.74-47.04,44.09s21.06,44.09,47.04,44.09,47.04-19.74,47.04-44.09-21.06-44.09-47.04-44.09ZM47.82,536.64c-15.13.42-27.74-11.6-28.17-26.85-.43-15.25,11.49-27.96,26.62-28.38,15.13-.42,27.74,11.6,28.17,26.85.43,15.25-11.49,27.96-26.62,28.38Z"/>
  <path class="cls-12" d="M379.41,486.07c-19.36,0-35.05,15.01-35.05,33.52s15.69,33.52,35.05,33.52,35.05-15.01,35.05-33.52-15.69-33.52-35.05-33.52ZM379.99,540.59c-11.27.32-20.66-8.82-20.98-20.41-.32-11.6,8.56-21.26,19.83-21.58,11.27-.32,20.66,8.82,20.98,20.41s-8.56,21.26-19.83,21.58Z"/>
  <path class="cls-12" d="M660.46,486.07c-19.36,0-35.05,15.01-35.05,33.52s15.69,33.52,35.05,33.52,35.05-15.01,35.05-33.52-15.69-33.52-35.05-33.52ZM661.03,540.59c-11.27.32-20.66-8.82-20.98-20.41-.32-11.6,8.56-21.26,19.83-21.58,11.27-.32,20.66,8.82,20.98,20.41s-8.56,21.26-19.83,21.58Z"/>
  <path class="cls-12" d="M736.28,486.07c-19.36,0-35.05,15.01-35.05,33.52s15.69,33.52,35.05,33.52,35.05-15.01,35.05-33.52-15.69-33.52-35.05-33.52ZM736.86,540.59c-11.27.32-20.66-8.82-20.98-20.41-.32-11.6,8.56-21.26,19.83-21.58,11.27-.32,20.66,8.82,20.98,20.41.32,11.6-8.56,21.26-19.83,21.58Z"/>
  <path class="cls-12" d="M331.69,552.59c-4.5,0-13.95.02-13.95.02,0,0-1.17-1.27-1.66-1.87-2.19-2.7-4.32-5.45-6.5-8.16-10.02-12.47-20.03-24.95-30.09-37.38-2.31-2.85-4.8-5.56-7.8-9,0,9.96,0,19.04,0,28.12s0,18.28,0,27.72c-5.47,0-10.76-.13-16.02-.13-.04-2.09-.05-82.04-.05-85.26,1.48,0,14.03.02,14.03.02,0,0,.8.83,2.35,2.7,10.63,12.87,20.6,25.69,31.11,38.66,3.58,4.41,7.23,8.75,10.55,13.37.27.38.58.73,1.37.69.59-18.23.23-37.23.32-55.39,2.56-.07,11.82-.02,16.34.02v85.89Z"/>
  <path class="cls-12" d="M564.9,544.53c-.15,2.82-.29,5.13-.35,7.72-2.72.04-11.83.09-15.62.09-.08-29.6-.12-59.88-.08-89.81h16.24c0,1.31-.03,32.78-.03,33.48.33-1.61,1.03-2.63,1.25-2.85,6.78-6.89,15.05-8.65,24.28-7.09,12.23,2.06,20.9,8.9,25.19,20.41,4.79,12.84,3.16,25.22-5.63,36-5.61,6.88-13.32,10.15-22.19,10.78-8.22.59-15.37-1.74-21.35-7.42-.33-.31-.68-.62-1.07-.87-.08-.06-.27-.16-.65-.43ZM582.73,499.35c-6.22-.67-14.05,4.53-16.24,10.87-1.28,3.71-1.92,7.38-1.51,11.25.98,9.21,6.29,15.77,14.43,17.45,8.98,1.85,18.21-2.33,21.13-11.94,1.36-4.47,1.4-8.89.29-13.37-2.21-8.91-8.92-14.19-18.1-14.25Z"/>
  <path class="cls-12" d="M821.19,513.83c10.02,12.78,20.57,25.99,30.28,38.38-1.43-.02-19.92.2-19.92.2,0,0-1.4-1.6-2.22-2.7-5.54-7.29-11.2-14.49-16.83-21.72-.7-.9-1.48-1.88-2.24-2.76-3.03,2.72-6.35,6.07-9.36,8.93-.55.52-1.21,1.26-1.21,1.26,0,0,.04,1.81.05,2.52.04,3.6.04,7.19.03,10.79,0,1.02.02,1.83,0,3.5-4.93.09-10.71.07-16.29.03-.05-10.27-.12-79.56-.11-89.74h15.97c.05,8.73.38,43.29.41,52.78,4.06-3.97,7.49-7.34,10.93-10.69,5.64-5.5,11.3-10.99,16.92-16.52.56-.55,1.75-1.66,1.75-1.66,0,0,18.12.19,19.49.21-4.67,4.7-9.85,9.79-14.19,14.21-4.28,4.36-8.32,8.97-13.46,12.98Z"/>
  <path class="cls-12" d="M485.39,524.24c1.58,6.12,4.86,10.51,10.16,12.86,9.38,4.17,18.49,3.55,26.87-2.86.46-.35,1.56-1.2,1.92-1.51,1.44,1.39,7.86,7.76,9.64,9.57-3.74,4.04-8.55,7.17-13.79,8.86-9.69,3.13-19.53,3.18-29.03-.43-15.49-5.89-24.44-20.5-21.1-39.28,2.02-11.37,12.94-22.57,25.7-24.96,8.67-1.62,17.14-1.24,25.03,3.12,10.4,5.75,15.49,14.95,16.53,26.56.22,2.5.48,4.89.38,8.02-5.64.14-11.88.05-17.53.07-5.8.02-11.6-.02-17.4-.02-5.65,0-11.29,0-17.37,0ZM485.55,513.67c1.49.03,33.97.06,35.96.09-.8-8.43-7.86-15.21-17.54-15.24-9.51-.03-17.24,6.29-18.42,15.15Z"/>
  <path class="cls-12" d="M428.58,499.59h-10.51v-11.92c3.43-.01,6.78.08,10.58-.01.04-4.8-.04-11.08.02-15.91,2.43-.13,11.24-.02,15.93.05.08,4.95-.06,10.58.02,15.86,5.97.1,11.72.04,16.99.01v11.97c-2.92,0-14.03,0-16.86.07-.1,1.3,0,20.16.02,28.6,0,1.62.06,3.24.45,4.84,1.02,4.15,3.6,6.27,7.89,6.51,2.87.16,5.47-.82,8-1.87.96,2.36,3.4,8.17,4.38,11.95-1.72,1.27-2.9,1.69-4.55,2.14-5.21,1.41-10.48,1.83-15.83.76-10.11-2.02-16.04-8.82-16.27-19.17-.22-9.74-.1-19.48-.16-29.22,0-1.37-.07-2.71-.1-4.65Z"/>
</svg>